<svg width="9" height="16" viewBox="0 0 9 16" fill="none" xmlns="http://www.w3.org/2000/svg">
<path d="M1.93095 15.7686C1.67555 15.7691 1.42803 15.6801 1.23137 15.5172C1.12069 15.4254 1.0292 15.3127 0.962132 15.1855C0.895069 15.0583 0.853754 14.9192 0.840554 14.776C0.827354 14.6328 0.842528 14.4885 0.885208 14.3512C0.927887 14.2139 0.997231 14.0864 1.08927 13.9759L5.98632 8.11694L1.26417 2.24705C1.17337 2.13524 1.10556 2.00658 1.06465 1.86848C1.02373 1.73038 1.01051 1.58556 1.02575 1.44233C1.04098 1.29911 1.08438 1.1603 1.15343 1.0339C1.22249 0.907501 1.31584 0.795993 1.42813 0.705788C1.54123 0.606277 1.67367 0.531218 1.81715 0.48532C1.96064 0.439422 2.11206 0.423677 2.26191 0.439074C2.41177 0.45447 2.55682 0.500674 2.68797 0.574788C2.81912 0.648901 2.93354 0.749323 3.02404 0.869752L8.30367 7.42829C8.46444 7.62388 8.55233 7.86922 8.55233 8.12241C8.55233 8.37559 8.46444 8.62093 8.30367 8.81652L2.83822 15.3751C2.72856 15.5073 2.58926 15.6119 2.43163 15.6803C2.274 15.7487 2.10246 15.7789 1.93095 15.7686Z" fill="#1EE1B3"/>
</svg>
